<svg xmlns="http://www.w3.org/2000/svg" width="67.173" height="86.44" viewBox="0 0 67.173 86.44"><defs><style>.a{fill:#e3323b;}.b{fill:#ba1a22;}</style></defs><path class="a" d="M90.649,0A33.591,33.591,0,0,0,79.055,65.114L88.28,84.929a2.614,2.614,0,0,0,4.74,0l9.225-19.815A33.59,33.59,0,0,0,90.649,0Zm0,24.458a9.128,9.128,0,1,1-9.129,9.127A9.138,9.138,0,0,1,90.649,24.458Z" transform="translate(-57.063)"/><path class="b" d="M256,0V24.458a9.128,9.128,0,1,1,0,18.255V86.44a2.614,2.614,0,0,0,2.37-1.511l9.225-19.815A33.59,33.59,0,0,0,256,0Z" transform="translate(-222.413)"/></svg>